Various Artists
The Essential 
Pop Sampler (2004)



Channels:		2 (stereo)
Sample Rate:		44.1 KHz
Sample Size:		16 bit

Audio Quality:		Perfect (Lossless)
Grabber:		Exact Audio Copy V1.0 beta 1
Encoder:		Flac 1.2.1
Encoder Settings:	High	
Contains:		Album Art, CRC, ID Tag [Vorbis Comments]
Cue File:		Yes
M3U File:		Yes
Log file:		Included In Torrent Description
		

Format:			Flac
Genre:			Pop		
Source:			Retail CD
Label: 			Pop


Track List:

01.Piano Man - Billy Joel
02.Saturday Night - Frank Sinatra
03.On The Road Again - Willie Nelson
04.The Best Is Yet To Come - Tony Bennett
05.That's The Way Of The World - Earth, Wind & Fire
06.Samba Pa' Ti - Santana
07.So What - Miles Davis
08.Here And Now - Luther Vandross
09.Bridge Over Troubled Water - Simon & Garfunkel
10.Ring Of Fire - Johnny Cash


Note: I didn't include the log file in the torrent for technical reasons. It's included here in the torrent description. If you want it just copy and paste it into a notepad and save.



Exact Audio Copy V1.0 beta 1 from 15. November 2010

EAC extraction logfile from 28. February 2011, 18:27

Various / The Essential Pop Sampler

Used drive  : Optiarc DVD RW AD-7203S   Adapter: 1  ID: 0

Read mode               : Secure
Utilize accurate stream : Yes
Defeat audio cache      : No
Make use of C2 pointers : Yes

Combined read/write offset correction       : 0
Overread into Lead-In and Lead-Out          : No
Fill up missing offset samples with silence : Yes
Delete leading and trailing silent blocks   : No
Null samples used in CRC calculations       : No
Used interface                              : Native Win32 interface for Win NT & 2000
Gap handling                                : Not detected, thus appended to previous track

Used output format              : User Defined Encoder
Selected bitrate                : 1024 kBit/s
Quality                         : High
Add ID3 tag                     : No
Command line compressor         : C:\Program Files (x86)\Exact Audio Copy\Flac\flac.exe
Additional command line options : -6 -V -T "ARTIST=%a" -T "TITLE=%t" -T "ALBUM=%g" -T "DATE=%y" -T "TRACKNUMBER=%n" -T "GENRE=%m" -T "COMMENT=%e" %j--picture="%i"%j %s -o %d


TOC of the extracted CD

     Track |   Start  |  Length  | Start sector | End sector 
    ---------------------------------------------------------
        1  |  0:00.00 |  5:38.52 |         0    |    25401   
        2  |  5:38.52 |  2:44.63 |     25402    |    37764   
        3  |  8:23.40 |  2:34.72 |     37765    |    49386   
        4  | 10:58.37 |  2:35.03 |     49387    |    61014   
        5  | 13:33.40 |  5:48.00 |     61015    |    87114   
        6  | 19:21.40 |  4:48.55 |     87115    |   108769   
        7  | 24:10.20 |  9:24.57 |    108770    |   151126   
        8  | 33:35.02 |  5:24.20 |    151127    |   175446   
        9  | 38:59.22 |  4:54.07 |    175447    |   197503   
       10  | 43:53.29 |  2:34.53 |    197504    |   209106   


Track  1

     Filename J:\Various Artists - The Essential Pop Sampler (2004)\01 Piano Man.wav

     Peak level 99.9 %
     Extraction speed 17.2 X
     Track quality 100.0 %
     Copy CRC E0CFA632
     Copy OK

Track  2

     Filename J:\Various Artists - The Essential Pop Sampler (2004)\02 Saturday Night (Is The Loneliest Night In The Week).wav

     Peak level 100.0 %
     Extraction speed 21.7 X
     Track quality 100.0 %
     Copy CRC C9D91AD7
     Copy OK

Track  3

     Filename J:\Various Artists - The Essential Pop Sampler (2004)\03 On The Road Again.wav

     Peak level 100.0 %
     Extraction speed 23.0 X
     Track quality 100.0 %
     Copy CRC 1DC01B95
     Copy OK

Track  4

     Filename J:\Various Artists - The Essential Pop Sampler (2004)\04 The Best Is Yet To Come.wav

     Peak level 90.1 %
     Extraction speed 24.0 X
     Track quality 100.0 %
     Copy CRC 5485227B
     Copy OK

Track  5

     Filename J:\Various Artists - The Essential Pop Sampler (2004)\05 That's The Way Of The World.wav

     Peak level 99.8 %
     Extraction speed 24.6 X
     Track quality 100.0 %
     Copy CRC B14B5E21
     Copy OK

Track  6

     Filename J:\Various Artists - The Essential Pop Sampler (2004)\06 Samba Pa' Ti.wav

     Peak level 99.9 %
     Extraction speed 26.3 X
     Track quality 100.0 %
     Copy CRC BA6D1DF8
     Copy OK

Track  7

     Filename J:\Various Artists - The Essential Pop Sampler (2004)\07 So What.wav

     Peak level 99.9 %
     Extraction speed 28.9 X
     Track quality 100.0 %
     Copy CRC 3131D9C4
     Copy OK

Track  8

     Filename J:\Various Artists - The Essential Pop Sampler (2004)\08 Here And Now.wav

     Peak level 94.7 %
     Extraction speed 32.0 X
     Track quality 100.0 %
     Copy CRC 8FA7C2BD
     Copy OK

Track  9

     Filename J:\Various Artists - The Essential Pop Sampler (2004)\09 Bridge Over Troubled Water.wav

     Peak level 89.9 %
     Extraction speed 32.0 X
     Track quality 100.0 %
     Copy CRC C2A34FA1
     Copy OK

Track 10

     Filename J:\Various Artists - The Essential Pop Sampler (2004)\10 Ring Of Fire.wav

     Peak level 97.1 %
     Extraction speed 33.7 X
     Track quality 100.0 %
     Copy CRC AF30065F
     Copy OK

No errors occurred

End of status report

==== Log checksum BFC81E743516D090E4DA21562977615D75CCB6FFA9356A85D2D7646976FF80FF ====





Cheers!